<svg width="24" height="24" viewBox="0 0 24 24" fill="none" xmlns="http://www.w3.org/2000/svg">
<path d="M11.9998 8.00118V12.0012M11.9998 16.0012H12.0098M10.2898 2.86118L1.81978 17.0012C1.64514 17.3036 1.55274 17.6465 1.55177 17.9957C1.55079 18.3449 1.64127 18.6883 1.8142 18.9917C1.98714 19.2951 2.2365 19.5479 2.53748 19.725C2.83847 19.9021 3.18058 19.9973 3.52978 20.0012H20.4698C20.819 19.9973 21.1611 19.9021 21.4621 19.725C21.7631 19.5479 22.0124 19.2951 22.1854 18.9917C22.3583 18.6883 22.4488 18.3449 22.4478 17.9957C22.4468 17.6465 22.3544 17.3036 22.1798 17.0012L13.7098 2.86118C13.5315 2.56729 13.2805 2.3243 12.981 2.15567C12.6814 1.98703 12.3435 1.89844 11.9998 1.89844C11.656 1.89844 11.3181 1.98703 11.0186 2.15567C10.7191 2.3243 10.468 2.56729 10.2898 2.86118Z" stroke="#FF3859" stroke-width="2" stroke-linecap="round" stroke-linejoin="round"/>
</svg>
