<svg width="177" height="20" viewBox="0 0 177 20" fill="none" xmlns="http://www.w3.org/2000/svg">
<path d="M161.3 3.42503H160.407V1.04571H159.281V0.24311H162.421V1.04571H161.3V3.42503Z" fill="#0053ED"/>
<path d="M163.529 3.42503H162.636V0.24311H163.847L164.431 1.56337L164.745 2.38497H164.807L165.106 1.56337L165.661 0.24311H166.872V3.42503H165.98V2.10952L166.013 1.57762H165.951L165.771 2.10952L165.296 3.23506H164.213L163.738 2.10952L163.558 1.57762H163.496L163.529 2.10952V3.42503Z" fill="#0053ED"/>
<path d="M5.19468 18.7893H0V0.276313H5.19468V18.7893Z" fill="#0053ED"/>
<path d="M11.4959 18.7893H6.30123V0.276313H11.8275L16.9669 7.21177L19.6748 11.467H20.034L19.7853 7.43282V0.276313H24.98V18.7893H19.4537L13.9827 11.6604L11.6341 8.01308H11.2749L11.4959 11.5499V18.7893Z" fill="#0053ED"/>
<path d="M31.289 18.7893H26.0943V0.276313H31.6206L36.76 7.21177L39.4679 11.467H39.8271L39.5784 7.43282V0.276313H44.7731V18.7893H39.2468L33.7758 11.6604L31.4272 8.01308H31.0679L31.289 11.5499V18.7893Z" fill="#0053ED"/>
<path d="M55.8623 19.0656C49.4242 19.0656 45.6111 15.3077 45.6111 9.5328C45.6111 3.75786 49.4242 0 55.8623 0C62.4662 0 66.224 3.75786 66.224 9.5328C66.224 15.3077 62.4662 19.0656 55.8623 19.0656ZM55.8623 14.092C59.6201 14.092 60.6978 13.2078 60.6978 9.5328C60.6978 5.85784 59.6201 4.97363 55.8623 4.97363C52.1044 4.97363 51.1373 5.85784 51.1373 9.5328C51.1373 13.2078 52.1044 14.092 55.8623 14.092Z" fill="#0053ED"/>
<path d="M76.0368 19.0656C70.3724 19.0656 66.9185 17.0485 66.9185 12.3512V12.1854H72.1132V12.7657C72.1132 14.0091 72.5553 14.3406 76.0368 14.3406C79.1868 14.3406 79.5183 14.092 79.5183 13.263C79.5183 12.5999 79.1591 12.3236 77.6394 12.1301L71.8368 11.3565C68.3829 10.8867 66.6422 9.03544 66.6422 6.05125C66.6422 3.09471 68.9356 0 75.6223 0C81.5078 0 84.3262 2.56971 84.3262 6.71441V6.88019H79.1315V6.46572C79.1315 5.13942 78.5513 4.69732 75.0697 4.69732C72.4171 4.69732 71.8368 5.05653 71.8368 5.85784C71.8368 6.43809 72.1684 6.71441 73.1632 6.85256L78.9657 7.70913C83.4973 8.37228 84.713 10.6933 84.713 13.0696C84.713 16.2472 82.2815 19.0656 76.0368 19.0656Z" fill="#0053ED"/>
<path d="M101.833 18.7893H85.3926V0.276313H101.833V4.946H90.5873V7.15651H101.419V11.7986H90.5873V14.1196H101.833V18.7893Z" fill="#0053ED"/>
<path d="M107.952 18.7893H102.757V0.276313H108.283L113.423 7.21177L116.131 11.467H116.49L116.241 7.43282V0.276313H121.436V18.7893H115.91L110.439 11.6604L108.09 8.01308H107.731L107.952 11.5499V18.7893Z" fill="#0053ED"/>
<path d="M131.53 19.0656C125.866 19.0656 122.412 17.0485 122.412 12.3512V12.1854H127.607V12.7657C127.607 14.0091 128.049 14.3406 131.53 14.3406C134.68 14.3406 135.012 14.092 135.012 13.263C135.012 12.5999 134.653 12.3236 133.133 12.1301L127.33 11.3565C123.877 10.8867 122.136 9.03544 122.136 6.05125C122.136 3.09471 124.429 0 131.116 0C137.001 0 139.82 2.56971 139.82 6.71441V6.88019H134.625V6.46572C134.625 5.13942 134.045 4.69732 130.563 4.69732C127.911 4.69732 127.33 5.05653 127.33 5.85784C127.33 6.43809 127.662 6.71441 128.657 6.85256L134.459 7.70913C138.991 8.37228 140.207 10.6933 140.207 13.0696C140.207 16.2472 137.775 19.0656 131.53 19.0656Z" fill="#0053ED"/>
<path d="M157.327 18.7893H140.886V0.276313H157.327V4.946H146.081V7.15651H156.912V11.7986H146.081V14.1196H157.327V18.7893Z" fill="#0053ED"/>
<path d="M162.236 18.7893H159.269V16.455H162.236V18.7893Z" fill="#0053ED"/>
<path d="M165.993 18.7893H163.428L166.942 10.6436H170.212L173.738 18.7893H171.112L170.492 17.2817H166.626L165.993 18.7893ZM167.963 14.0842L167.489 15.2271H169.653L169.179 14.0842L168.644 12.7104H168.486L167.963 14.0842Z" fill="#0053ED"/>
<path d="M176.268 12.1025H173.982V10.6436H176.268V12.1025ZM176.268 18.7893H173.982V12.6618H176.268V18.7893Z" fill="#0053ED"/>
</svg>
