<svg width="22" height="18" viewBox="0 0 22 18" fill="none" xmlns="http://www.w3.org/2000/svg">
<path d="M14.3326 12.3352L10.9992 9.00186M10.9992 9.00186L7.6659 12.3352M10.9992 9.00186V16.5019M17.9909 14.3269C18.8037 13.8838 19.4458 13.1826 19.8158 12.334C20.1858 11.4855 20.2627 10.5379 20.0344 9.64077C19.8061 8.74365 19.2855 7.94812 18.5548 7.37973C17.8241 6.81134 16.925 6.50247 15.9992 6.50186H14.9492C14.697 5.52623 14.2269 4.62047 13.5742 3.85269C12.9215 3.0849 12.1033 2.47507 11.181 2.06903C10.2587 1.663 9.25636 1.47132 8.24933 1.50843C7.2423 1.54553 6.25679 1.81044 5.36688 2.28325C4.47697 2.75605 3.70583 3.42444 3.11142 4.23818C2.51701 5.05191 2.11481 5.98981 1.93505 6.98135C1.75529 7.9729 1.80266 8.9923 2.07358 9.96291C2.3445 10.9335 2.83194 11.8301 3.49923 12.5852" stroke="#14181F" stroke-width="2" stroke-linecap="round" stroke-linejoin="round"/>
</svg>
